<svg id="inapp_controls_landicon" xmlns="http://www.w3.org/2000/svg" width="34.587" height="33.126" viewBox="0 0 34.587 33.126">
  <g id="Group_108813" data-name="Group 108813" transform="translate(-43.961 -488)">
    <g id="Group_105473" data-name="Group 105473" transform="translate(42 486)">
      <g id="Group_105434" data-name="Group 105434" transform="translate(7.704 5.456)">
        <g id="Group_105433" data-name="Group 105433" transform="translate(18.46 22.031)">
          <path id="Path_90340" data-name="Path 90340" d="M31.122,25.467a1.886,1.886,0,1,1-1.886,1.886A1.888,1.888,0,0,1,31.122,25.467Zm0,2.514a.629.629,0,1,0-.629-.629A.63.63,0,0,0,31.122,27.981Z" transform="translate(-29.236 -25.467)" fill="#a4afc1"/>
        </g>
      </g>
      <g id="Group_108859" data-name="Group 108859" transform="translate(1.96 2)">
        <path id="Path_90336" data-name="Path 90336" d="M0,0H.951V1.9H0Z" transform="translate(3.866 4.538) rotate(-45)" fill="#a4afc1"/>
        <path id="Path_90337" data-name="Path 90337" d="M0,0H.951V1.9H0Z" transform="translate(0 0.674) rotate(-45)" fill="#a4afc1"/>
        <path id="Path_90338" data-name="Path 90338" d="M0,0H1.9V.951H0Z" transform="translate(4.034 1.344) rotate(-45)" fill="#a4afc1"/>
        <path id="Path_90339" data-name="Path 90339" d="M0,0H1.9V.951H0Z" transform="translate(0.168 5.21) rotate(-45)" fill="#a4afc1"/>
      </g>
    </g>
  </g>
  <g id="cellphone" transform="translate(-2.117 -2.951)">
    <g id="color">
      <g id="Group_108846" data-name="Group 108846">
        <path id="Path_185216" data-name="Path 185216" d="M23.5,29.25H13a2,2,0,0,1-2-2V8.75a2,2,0,0,1,2-2H23.5a2,2,0,0,1,2,2v18.5A2,2,0,0,1,23.5,29.25Z" fill="#62bffc"/>
      </g>
      <g id="Group_108847" data-name="Group 108847">
        <path id="Path_185217" data-name="Path 185217" d="M15,7.75a1,1,0,0,0,1,1h4a1,1,0,0,0,1-1,1,1,0,0,1,1-1H14A1,1,0,0,1,15,7.75Z" fill="#fff"/>
      </g>
    </g>
    <g id="_x31_.5">
      <g id="Group_108853" data-name="Group 108853">
        <g id="Group_108852" data-name="Group 108852">
          <path id="Path_185222" data-name="Path 185222" d="M23.5,30H13a2.752,2.752,0,0,1-2.75-2.75V8.75A2.752,2.752,0,0,1,13,6H23.5a2.752,2.752,0,0,1,2.75,2.75v18.5A2.752,2.752,0,0,1,23.5,30ZM13,7.5a1.252,1.252,0,0,0-1.25,1.25v18.5A1.252,1.252,0,0,0,13,28.5H23.5a1.252,1.252,0,0,0,1.25-1.25V8.75A1.252,1.252,0,0,0,23.5,7.5Z" fill="#444b54"/>
        </g>
      </g>
      <g id="Group_108855" data-name="Group 108855">
        <g id="Group_108854" data-name="Group 108854">
          <path id="Path_185223" data-name="Path 185223" d="M20,9.5H16a1.752,1.752,0,0,1-1.75-1.75A.25.25,0,0,0,14,7.5H13V6h1a1.752,1.752,0,0,1,1.75,1.75A.25.25,0,0,0,16,8h4a.25.25,0,0,0,.25-.25A1.752,1.752,0,0,1,22,6h1V7.5H22a.25.25,0,0,0-.25.25A1.752,1.752,0,0,1,20,9.5Z" fill="#444b54"/>
        </g>
      </g>
    </g>
  </g>
  <g id="Group_108856" data-name="Group 108856" transform="matrix(0.946, 0.326, -0.326, 0.946, -5604.01, -3289.77)">
    <path id="Path_185230" data-name="Path 185230" d="M30.861,22.951l-3.135-3.182a1.131,1.131,0,0,0-1.6,1.6L25.061,20.3a1.128,1.128,0,0,0-1.6,0,2.111,2.111,0,0,0-.534,1.066,1.131,1.131,0,0,0-1.6,1.6l-3.194-3.194a1.131,1.131,0,0,0-1.6,1.6l5.446,5.446a3.63,3.63,0,0,0-3.053.677c-.8.8-.778,1.354-.534,1.6.67.67,1.193-.394,4.26,1.063s5.038,1.328,6.392,0l1.066-1.066,0,0c1.822-1.822,2.373-4.262.742-6.135Z" transform="translate(6376.302 1275.453)" fill="#fff"/>
    <path id="Path_185237" data-name="Path 185237" d="M21.381,24.818l-1.33-1.331a2.031,2.031,0,0,1,1.434-3.466h0a2.008,2.008,0,0,1,1.434.6l.532.531L22.18,22.421l-.532-.532a.23.23,0,1,0-.326.325l1.33,1.331Z" transform="translate(6376.949 1275.568)" fill="#444b54"/>
    <path id="Path_185238" data-name="Path 185238" d="M23.157,23.929,21.828,22.6a2.03,2.03,0,0,1,2.87-2.87l1.065,1.065-1.272,1.272L23.426,21a.228.228,0,0,0-.326,0,.261.261,0,0,0,0,.325l1.331,1.332Z" transform="translate(6377.301 1275.392)" fill="#444b54"/>
    <path id="Path_185239" data-name="Path 185239" d="M28.842,23.749l-3.2-3.2a.231.231,0,0,0-.327.327l.8.8L24.846,22.95l-.8-.8a2.03,2.03,0,0,1,2.87-2.872l3.194,3.194Z" transform="translate(6377.744 1275.303)" fill="#444b54"/>
    <path id="Path_185240" data-name="Path 185240" d="M26.582,32.245a9.932,9.932,0,0,1-4.162-1.127,5.57,5.57,0,0,0-2.935-.733,1.871,1.871,0,0,1-1.574-.507c-.538-.538-.723-1.613.532-2.869a3.346,3.346,0,0,1,1.587-.872L16.05,22.157a2.03,2.03,0,0,1,2.872-2.872l3.194,3.2-1.272,1.272L17.65,20.559a.231.231,0,0,0-.327.327l5.446,5.446A.9.9,0,0,1,22,27.857a2.848,2.848,0,0,0-2.284.424,2.752,2.752,0,0,0-.269.307,7.251,7.251,0,0,1,3.746.906c3.353,1.593,4.671.857,5.374.168L29.629,28.6c1.308-1.307,2.23-3.425.547-5.109l-2.937-2.939a.231.231,0,0,0-.327.327l-1.272,1.271a2.03,2.03,0,0,1,2.87-2.87l2.928,2.929c2.135,2.137,1.918,5.209-.53,7.658l-1.072,1.072a4.454,4.454,0,0,1-3.253,1.3Z" transform="translate(6376.153 1275.304)" fill="#444b54"/>
  </g>
</svg>
