<svg id="no_cost_emi" xmlns="http://www.w3.org/2000/svg" width="33.098" height="27.837" viewBox="0 0 33.098 27.837">
  <g id="Group_105460" data-name="Group 105460">
    <g id="Group_105305" data-name="Group 105305" transform="translate(5.427 3.624)">
      <g id="Group_105375" data-name="Group 105375" transform="translate(1.802 4.139)">
        <path id="Path_181999" data-name="Path 181999" d="M10.7,24.669c-8.966-.246-8.74-8.717-8.74-8.717s8.811-.041,8.74,0Z" transform="translate(-1.962 -7.234)" fill="#4b94c6" stroke="#444b54" stroke-width="1.6"/>
        <path id="Path_181998" data-name="Path 181998" d="M12,19.435c5.209,0,9.432-3.9,9.432-8.717S17.209,2,12,2Z" transform="translate(-1.025 -2)" fill="#62bffd" stroke="#444b54" stroke-width="1.6"/>
      </g>
      <path id="Path_182000" data-name="Path 182000" d="M9.828,9.8C-.253,9.525,0,0,0,0H9.828Z" transform="translate(9.802 0) rotate(90)" fill="#f3f3f1" stroke="#444b54" stroke-width="1.6"/>
    </g>
    <g id="Group_105459" data-name="Group 105459">
      <path id="Path_185179" data-name="Path 185179" d="M0,1.917H.959V0H0Z" transform="translate(27.843 5.932) rotate(-135)" fill="#a4afc1"/>
      <path id="Path_185180" data-name="Path 185180" d="M0,1.917H.959V0H0Z" transform="translate(31.742 2.035) rotate(-135)" fill="#a4afc1"/>
      <path id="Path_185181" data-name="Path 185181" d="M0,.959H1.917V0H0Z" transform="translate(28.352 2.034) rotate(-135)" fill="#a4afc1"/>
      <path id="Path_185182" data-name="Path 185182" d="M0,.959H1.917V0H0Z" transform="translate(32.25 5.932) rotate(-135)" fill="#a4afc1"/>
      <path id="Path_185183" data-name="Path 185183" d="M30.954,28.9a1.718,1.718,0,1,0-1.718-1.718A1.72,1.72,0,0,0,30.954,28.9Zm0-2.29a.573.573,0,1,1-.573.573A.574.574,0,0,1,30.954,26.612Z" transform="translate(-29.236 -1.066)" fill="#a4afc1"/>
    </g>
  </g>
</svg>
