<svg id="rewards" xmlns="http://www.w3.org/2000/svg" width="35.374" height="29.751" viewBox="0 0 35.374 29.751">
  <g id="Group_108829" data-name="Group 108829" transform="translate(-4155.628 -4961.618)">
    <path id="Path_185190" data-name="Path 185190" d="M9.641,28.048h14.7a.891.891,0,0,0,.891-.891V18.25H8.75v8.908A.891.891,0,0,0,9.641,28.048Z" transform="translate(4156.325 4960.85)" fill="#f3f3f1" stroke="#707070" stroke-width="1.6"/>
    <path id="Path_185191" data-name="Path 185191" d="M7.641,17.758H25.9a.891.891,0,0,0,.891-.891V14.641a.891.891,0,0,0-.891-.891H7.641a.891.891,0,0,0-.891.891v2.227A.891.891,0,0,0,7.641,17.758Z" transform="translate(4156.543 4961.341)" fill="#62bffd"/>
    <path id="Path_185192" data-name="Path 185192" d="M26.24,12.574S25.373,6.706,20.6,6.706,17.567,12.574,26.24,12.574Z" transform="translate(4147.074 4962.11)" fill="#62bffd"/>
    <path id="Path_185193" data-name="Path 185193" d="M8.751,12.574s.868-5.868,5.638-5.868S17.423,12.574,8.751,12.574Z" transform="translate(4164.563 4962.11)" fill="#62bffd"/>
    <path id="Path_185194" data-name="Path 185194" d="M12.522,6.758A4.524,4.524,0,0,1,13.26,6.7C17.244,6.1,15.722,11.2,8.689,11.2l.014-.077c5.324-.53,6.527-3.882,3.819-4.368Z" transform="translate(4165.497 4962.833)" fill="#4b94c6"/>
    <path id="Path_185195" data-name="Path 185195" d="M18,6.787a4.63,4.63,0,0,1,.871-.081c4.77,0,5.638,5.868,5.638,5.868a17.222,17.222,0,0,1-1.8-.1c-.124-.69-1.055-5.054-4.709-5.688Z" transform="translate(4148.806 4962.11)" fill="#4b94c6"/>
    <path id="Path_185196" data-name="Path 185196" d="M9.4,25.931V18.25h1.321v7.681c0,.832.1.768-.66.768H8.744A.721.721,0,0,0,9.4,25.931Z" transform="translate(4170.138 4961.534)" fill="#d5dbe1"/>
    <path id="Path_185197" data-name="Path 185197" d="M7.4,15.865V14.353a.639.639,0,0,0-.668-.6H8.065c.85-.078.668.271.668.6v1.512c0,.334.183.686-.668.6H6.73A.639.639,0,0,0,7.4,15.865Z" transform="translate(4173.934 4961.986)" fill="#4b94c6"/>
    <path id="Path_185206" data-name="Path 185206" d="M9.641,28.048h14.7a.891.891,0,0,0,.891-.891V18.25H8.75v8.908A.891.891,0,0,0,9.641,28.048Z" transform="translate(4156.325 4960.85)" fill="none" stroke="#444b54" stroke-width="1.6"/>
    <path id="Path_185207" data-name="Path 185207" d="M7.641,17.758H25.9a.891.891,0,0,0,.891-.891V14.641a.891.891,0,0,0-.891-.891H7.641a.891.891,0,0,0-.891.891v2.227A.891.891,0,0,0,7.641,17.758Z" transform="translate(4156.543 4961.341)" fill="none" stroke="#444b54" stroke-width="1.6"/>
    <path id="Path_185208" data-name="Path 185208" d="M26.24,12.574S25.373,6.706,20.6,6.706,17.567,12.574,26.24,12.574Z" transform="translate(4147.074 4962.11)" fill="none" stroke="#444b54" stroke-width="1.6"/>
    <path id="Path_185209" data-name="Path 185209" d="M8.751,12.574s.868-5.868,5.638-5.868S17.423,12.574,8.751,12.574Z" transform="translate(4164.563 4962.11)" fill="none" stroke="#444b54" stroke-width="1.6"/>
  </g>
  <g id="Group_105459" data-name="Group 105459">
    <path id="Path_185179" data-name="Path 185179" d="M0,0H1.025V2.049H0Z" transform="translate(4.167 4.891) rotate(-45)" fill="#a4afc1"/>
    <path id="Path_185180" data-name="Path 185180" d="M0,0H1.025V2.049H0Z" transform="translate(0 0.726) rotate(-45)" fill="#a4afc1"/>
    <path id="Path_185181" data-name="Path 185181" d="M0,0H2.049V1.025H0Z" transform="translate(4.348 1.449) rotate(-45)" fill="#a4afc1"/>
    <path id="Path_185182" data-name="Path 185182" d="M0,0H2.049V1.025H0Z" transform="translate(0.182 5.616) rotate(-45)" fill="#a4afc1"/>
    <path id="Path_185183" data-name="Path 185183" d="M31.072,29.139A1.836,1.836,0,1,1,32.908,27.3,1.838,1.838,0,0,1,31.072,29.139Zm0-2.448a.612.612,0,1,0,.612.612A.614.614,0,0,0,31.072,26.691Z" transform="translate(2.466 0.612)" fill="#a4afc1"/>
  </g>
</svg>
